<?xml version="1.0" encoding="utf-8"?>
<!-- Generator: Adobe Illustrator 17.1.0, SVG Export Plug-In . SVG Version: 6.00 Build 0)  -->
<!DOCTYPE svg PUBLIC "-//W3C//DTD SVG 1.1//EN" "http://www.w3.org/Graphics/SVG/1.1/DTD/svg11.dtd">
<svg version="1.1" id="Layer_1" xmlns="http://www.w3.org/2000/svg" xmlns:xlink="http://www.w3.org/1999/xlink" x="0px" y="0px"
	 viewBox="0 0 251.5 178.1" style="enable-background:new 0 0 251.5 178.1;" xml:space="preserve">
<style type="text/css">
	.st0{fill:#FFFFFF;}
	.st1{fill:#0070B4;}
</style>
<path class="st0" d="M4.6,39.1h33.1c0,0,35.9-35.9,87.2-35.9s87.6,35.9,87.6,35.9H248v98.2h-34.3c0,0-32.9,36.3-88.8,36.3
	c-55.8,0-86.6-36.1-86.6-36.1H4.6V39.1z"/>
<g>
	<path class="st1" d="M214.3,37c-18.8-18.7-41.3-27.7-58.6-31.7c-16.9-3.9-29.5-3.4-30.3-3.3c-0.4,0-3.5-0.1-8.6,0.2
		C87.4,4,58.3,15.9,37.2,37H1.9v103.6h35.5c18.8,18.9,41,27.6,58.4,31.6c16.9,3.9,29.5,3.4,30.3,3.3c0.4,0,3.5,0.1,8.6-0.2
		c29.6-1.9,58.9-13.8,80-35.2H250V37H214.3z M245.1,134.9h-32.8c-18.3,21.1-50.1,35.9-86.2,35.9c-36.1,0.1-67.9-14.9-86.4-35.9H6.9
		V42.6h32.3v-0.2l0.1,0.3C58.8,21.7,89.4,6.7,125.5,6.6c36.1-0.1,67.5,15.2,86.8,35.8v0.1h0.1c0,0,0,0,0,0l0,0h32.7V134.9z"/>
	<path class="st1" d="M78.9,136.7h-1.8v5.7h1.8c1.7,0,2.5-1,2.5-2.9C81.4,137.6,80.6,136.7,78.9,136.7"/>
	<polygon class="st1" points="108.6,140.9 111.5,140.9 110.1,137.3 	"/>
	<path class="st1" d="M100.6,136.5h-2.7v2h2.7c0.8,0,1.2-0.4,1.2-1C101.7,136.9,101.4,136.6,100.6,136.5"/>
	<path class="st1" d="M121.7,136.5H119v2h2.7c0.8,0,1.2-0.4,1.2-1C122.8,136.9,122.4,136.6,121.7,136.5"/>
	<polygon class="st1" points="115.2,74.1 115,74.1 110.1,99.3 120,99.3 	"/>
	<path class="st1" d="M128.2,42.5c1,0,1.7-0.3,2.3-1c0.6-0.7,0.9-1.5,0.9-2.4c0-1-0.3-1.8-0.9-2.4c-0.6-0.7-1.4-1-2.4-1
		c-1,0-1.7,0.3-2.3,1c-0.6,0.7-0.9,1.5-0.9,2.4c0,1,0.3,1.8,0.9,2.4C126.5,42.2,127.2,42.5,128.2,42.5"/>
	<path class="st1" d="M76,42.5c1,0,1.7-0.3,2.3-1c0.6-0.7,0.9-1.5,0.9-2.4c0-1-0.3-1.8-0.9-2.4c-0.6-0.7-1.4-1-2.4-1
		c-1,0-1.7,0.3-2.3,1c-0.6,0.7-0.9,1.5-0.9,2.4c0,1,0.3,1.8,0.9,2.4C74.2,42.2,75,42.5,76,42.5"/>
	<path class="st1" d="M126.5,12.1C92.5,12,60.4,28,43,47.7H11.7v82.2l30.9,0c17.4,19.8,49.7,35.9,83.8,35.8
		c34.1-0.1,65.6-15.9,82.9-35.8h30.9V47.7h-31.4C191.4,28.1,160.2,12.1,126.5,12.1 M174.3,33.7l2.5,3.6l2.6-3.6h2.5l-4,5.4v5.4h-2.2
		v-5.4l-4-5.4H174.3z M160.5,33.7h9.4v2h-3.6v8.8h-2.2v-8.8h-3.6V33.7z M148.5,33.7h0.7l6.8,6.8v-6.8h2.2v10.9h-0.8l-6.7-6.7v6.7
		h-2.2V33.7z M124.3,35.2c1-1,2.3-1.6,3.9-1.6c1.5,0,2.8,0.5,3.9,1.6c1,1,1.6,2.3,1.6,3.9c0,1.5-0.5,2.8-1.6,3.9
		c-1,1-2.3,1.6-3.9,1.6c-1.5,0-2.8-0.5-3.9-1.6c-1-1-1.6-2.3-1.6-3.9C122.8,37.5,123.3,36.3,124.3,35.2 M113.2,35.2
		c1-1,2.3-1.6,3.9-1.6c1.6,0,2.9,0.5,4,1.4l-1.4,1.6c-0.7-0.6-1.6-0.9-2.5-0.9c-1,0-1.8,0.3-2.4,0.9c-0.6,0.6-0.9,1.4-0.9,2.3
		c0,1,0.3,1.8,0.9,2.4c0.6,0.6,1.4,0.9,2.4,0.9c1,0,1.8-0.3,2.5-0.9l1.4,1.6c-1.1,1-2.4,1.4-4,1.4c-1.5,0-2.8-0.5-3.9-1.6
		c-1-1-1.6-2.3-1.6-3.9C111.6,37.5,112.1,36.3,113.2,35.2 M107.1,37.9c0.7,0,1.3,0.6,1.3,1.3c0,0.7-0.6,1.3-1.3,1.3
		c-0.7,0-1.3-0.6-1.3-1.3C105.9,38.5,106.4,37.9,107.1,37.9 M83.9,33.7h2.2V38l3.6-4.3h2.4l-4.3,5.1l5.1,5.8h-2.8l-4.1-4.7v4.7h-2.2
		V33.7z M72.1,35.2c1-1,2.3-1.6,3.9-1.6c1.5,0,2.8,0.5,3.9,1.6c1,1,1.6,2.3,1.6,3.9c0,1.5-0.5,2.8-1.6,3.9c-1,1-2.3,1.6-3.9,1.6
		c-1.5,0-2.8-0.5-3.9-1.6c-1-1-1.6-2.3-1.6-3.9C70.5,37.5,71,36.3,72.1,35.2 M52.3,123.5h-9.9V92.7H30.1v30.9l-9.9,0V54.2h9.9v29.7
		h12.3V54.2h9.9V123.5z M60.8,54.2h29.6v9.4H70.7v20.4h17.1v9.4H70.7v20.4h19.7v9.9H60.8V54.2z M78.9,144.3h-3.7v-9.5h3.7
		c3,0,4.4,1.6,4.4,4.8C83.3,142.7,81.8,144.3,78.9,144.3 M93.2,136.5h-5.1v2h3.8v1.8h-3.8v2.2h5.1v1.8h-7v-9.5l7,0V136.5z
		 M93.7,39.1c0-1.5,0.5-2.8,1.6-3.9c1-1,2.3-1.6,3.9-1.6c1.6,0,2.9,0.5,4,1.4l-1.4,1.6c-0.7-0.6-1.6-0.9-2.5-0.9
		c-1,0-1.8,0.3-2.4,0.9c-0.6,0.6-0.9,1.4-0.9,2.3c0,1,0.3,1.8,0.9,2.4c0.6,0.6,1.4,0.9,2.4,0.9c1,0,1.8-0.3,2.5-0.9l1.4,1.6
		c-1.1,1-2.4,1.4-4,1.4c-1.5,0-2.8-0.5-3.9-1.6C94.2,41.9,93.7,40.6,93.7,39.1 M111,54.2h8.3l15.5,69.4h-9.9l-2.9-14.9h-13.5
		l-2.9,14.9h-9.9L111,54.2z M100.2,140.3h-2.2v3.9H96v-9.5h4.1c2.2,0,3.3,0.9,3.3,2.7C103.5,139.4,102.4,140.3,100.2,140.3
		 M112.8,144.3l-0.6-1.5h-4.3l-0.6,1.5h-2l3.8-9.5h1.9l3.8,9.5L112.8,144.3z M114.9,156.9v-2.5l1.2-1l-1.2-1v-2.5l4,3.5L114.9,156.9
		z M120.7,140.3H119v3.9h-1.9v-9.5h4.1c2.2,0,3.3,0.9,3.3,2.7c0,1.4-0.6,2.2-1.7,2.6l2.4,4.1H123L120.7,140.3z M123.8,156.9v-2.4
		l1.2-1l-1.2-1v-2.5l4,3.5L123.8,156.9z M131.7,144.3h-1.9v-7.7h-3.2v-1.8h8.2v1.8h-3.2V144.3z M132.7,156.9v-2.4l1.2-1l-1.2-1v-2.5
		l4,3.5L132.7,156.9z M136,40.5v-6.9h2.2V40c0,0.8,0.2,1.4,0.7,1.8c0.5,0.4,1.1,0.6,1.8,0.6c0.7,0,1.3-0.2,1.8-0.6
		c0.5-0.4,0.7-1,0.7-1.8v-6.3h2.2v6.9c0,1.1-0.4,2.1-1.3,2.8c-0.9,0.8-2,1.2-3.4,1.2c-1.4,0-2.5-0.4-3.4-1.2
		C136.4,42.6,136,41.6,136,40.5 M146.6,144.3h-1.9l0-5.5l-2.8,3.2l-2.8-3.2v5.5h-1.9v-9.5h0.6l4.1,4.7l4.1-4.7h0.6V144.3z
		 M156.4,136.5h-5.1v2h3.8v1.8h-3.8v2.2h5.1v1.8h-7v-9.5l7,0V136.5z M167.7,144.3H167l-5.9-5.9v5.9h-1.9v-9.5h0.6l5.9,5.9v-5.9h1.9
		V144.3z M168.9,123.5h-29.6V54.2h9.9v59.4h19.7V123.5z M178.3,136.5h-3.2v7.7h-1.9v-7.7h-3.2v-1.8h8.2V136.5z M196.1,63.5h-11.5v60
		h-9.9v-60h-11.5v-9.4h32.9V63.5z M223.2,83.9V54.2h9.9v69.4h-9.9V92.7h-12.3v30.9H201V54.2h9.9v29.7H223.2z"/>
</g>
</svg>
